<?xml version="1.0" encoding="UTF-8" standalone="no"?>
<svg
   xmlns:dc="http://purl.org/dc/elements/1.1/"
   xmlns:cc="http://creativecommons.org/ns#"
   xmlns:rdf="http://www.w3.org/1999/02/22-rdf-syntax-ns#"
   xmlns:svg="http://www.w3.org/2000/svg"
   xmlns="http://www.w3.org/2000/svg"
   xmlns:sodipodi="http://sodipodi.sourceforge.net/DTD/sodipodi-0.dtd"
   xmlns:inkscape="http://www.inkscape.org/namespaces/inkscape"
   width="400px"
   height="400px"
   version="1.1"
   viewBox="0 0 200 200"
   id="svg10"
   sodipodi:docname="ISO_7010_E010_yellow.svg"
   inkscape:version="1.0.2 (e86c870879, 2021-01-15, custom)">
  <metadata
     id="metadata16">
    <rdf:RDF>
      <cc:Work
         rdf:about="">
        <dc:format>image/svg+xml</dc:format>
        <dc:type
           rdf:resource="http://purl.org/dc/dcmitype/StillImage" />
        <dc:title></dc:title>
      </cc:Work>
    </rdf:RDF>
  </metadata>
  <defs
     id="defs14" />
  <sodipodi:namedview
     pagecolor="#ffffff"
     bordercolor="#666666"
     borderopacity="1"
     objecttolerance="10"
     gridtolerance="10"
     guidetolerance="10"
     inkscape:pageopacity="0"
     inkscape:pageshadow="2"
     inkscape:window-width="3440"
     inkscape:window-height="1417"
     id="namedview12"
     showgrid="false"
     inkscape:zoom="1.26"
     inkscape:cx="-146.73401"
     inkscape:cy="278.89098"
     inkscape:window-x="-8"
     inkscape:window-y="-8"
     inkscape:window-maximized="1"
     inkscape:current-layer="svg10" />
  <rect
     width="200"
     height="200"
     style="fill:#ffffff"
     id="rect2" />
  <rect
     x="5"
     y="5"
     width="190"
     height="190"
     style="fill:#ffcc00"
     id="rect4" />
  <path
     d="m132.73 36.116h47.168v15.723h-47.168zm15.723-15.723h15.723v47.168h-15.723z"
     style="fill:#ffffff"
     id="path6" />
  <path
     d="m56.258 65.861c-18.603 0.19378-35.268 18.7-30.23 43.116 3.7787 18.7 23.641 42.922 58.231 66.37 34.59-23.544 54.452-47.767 58.231-66.37 5.0383-24.513-11.53-42.922-30.23-43.116-9.5921-0.19378-21.607 4.9414-28.001 17.15-6.3948-12.208-18.409-17.343-28.001-17.15zm42.922 14.824-16.278 33.427h20.638l-36.14 42.05 13.952-32.943h-20.056z"
     style="fill:#ffffff"
     id="path8" />
</svg>
