<?xml version="1.0" standalone="no"?>
<!DOCTYPE svg PUBLIC "-//W3C//DTD SVG 20010904//EN"
 "http://www.w3.org/TR/2001/REC-SVG-20010904/DTD/svg10.dtd">
<svg version="1.0" xmlns="http://www.w3.org/2000/svg"
 width="356.000000pt" height="356.000000pt" viewBox="0 0 356.000000 356.000000"
 preserveAspectRatio="xMidYMid meet">
<metadata>
Created by potrace 1.14, written by Peter Selinger 2001-2017
</metadata>
<g transform="translate(0.000000,356.000000) scale(0.100000,-0.100000)"
fill="#000000" stroke="none">
<path d="M0 1780 l0 -1780 1780 0 1780 0 0 1780 0 1780 -1780 0 -1780 0 0
-1780z m2980 1345 l0 -145 150 0 150 0 0 -150 0 -150 -150 0 -150 0 0 -145 0
-145 -145 0 -145 0 0 145 0 145 -150 0 -151 0 3 148 3 147 148 3 147 3 0 144
0 145 145 0 145 0 0 -145z m-1669 -412 c6 -6 2 -9 -13 -9 -19 1 -24 -5 -26
-33 -7 -72 50 -161 103 -161 12 0 59 11 106 26 90 27 94 27 241 -5 54 -12 160
-30 237 -40 137 -19 141 -19 236 0 113 22 139 16 194 -46 45 -52 58 -86 71
-188 6 -47 31 -161 55 -253 25 -93 45 -175 45 -183 0 -8 -34 -49 -75 -92 -85
-87 -93 -112 -47 -151 55 -48 57 -53 63 -207 6 -158 9 -168 77 -266 29 -43 33
-56 29 -94 -4 -34 0 -51 15 -71 27 -38 13 -65 -72 -141 -39 -35 -79 -77 -87
-93 -8 -16 -43 -59 -78 -96 -86 -92 -99 -118 -91 -193 3 -34 13 -83 22 -110 9
-27 12 -53 8 -57 -12 -12 -146 44 -278 114 -57 31 -113 56 -124 56 -11 0 -44
-11 -74 -25 -67 -31 -79 -31 -117 1 -41 34 -70 27 -100 -26 -28 -50 -41 -56
-79 -36 -32 17 -37 25 -47 96 -14 90 -44 104 -99 45 -25 -26 -42 -35 -65 -35
-33 0 -43 13 -55 70 -9 44 -83 148 -125 176 -40 26 -78 29 -123 10 -37 -16
-73 87 -48 134 12 22 16 20 -102 43 l-68 13 6 -22 c8 -30 -21 -82 -50 -90 -33
-8 -57 -2 -66 16 -4 8 -19 39 -34 68 -31 59 -29 96 4 107 26 8 25 18 -2 50
-19 21 -37 28 -98 36 -98 14 -125 25 -140 57 -7 15 -16 34 -20 42 -4 8 -24 16
-45 18 -33 3 -36 6 -30 25 3 12 9 55 12 95 5 69 4 75 -26 123 -35 57 -39 99
-16 175 19 61 19 127 1 162 -8 16 -10 35 -6 47 11 30 -4 67 -49 128 -52 69
-52 93 0 153 l41 48 -6 65 c-4 37 -9 86 -12 110 l-6 43 31 -23 c38 -28 64 -18
69 26 5 36 -8 47 -60 54 -35 5 -44 10 -46 28 -3 21 -1 22 41 17 30 -4 70 1
128 16 46 12 107 27 134 33 107 21 122 28 199 91 83 67 126 86 197 86 24 0 85
14 134 30 91 31 182 37 206 13z m50 -45 c8 -15 8 -18 0 -14 -6 4 -16 16 -22
28 -8 15 -8 18 0 14 6 -4 16 -16 22 -28z"/>
<path d="M1367 1853 l-345 -388 184 -3 c101 -1 184 -5 184 -8 0 -3 -43 -107
-96 -232 -166 -389 -159 -371 -131 -342 45 46 637 739 637 745 0 3 -84 5 -186
5 l-185 0 7 23 c4 12 36 81 72 152 85 171 211 435 208 435 -2 0 -159 -174
-349 -387z"/>
</g>
</svg>
